{"title":"Santiago Alvarez - La guerra necesaria (1980)","uid":6102128,"size":1461049501,"categoryP":"video","categoryS":"movies","magnet":"?xt=urn:btih:a530e21cb06144e9129e5820a6296c3ff0c0bfbc&amp;dn=Santiago+Alvarez+-+La+guerra+necesaria+%281980%29&amp;tr=udp%3A%2F%2Ftracker.openbittorrent.com%3A80&amp;tr=udp%3A%2F%2Fopen.demonii.com%3A1337&amp;tr=udp%3A%2F%2Ftracker.coppersurfer.tk%3A6969&amp;tr=udp%3A%2F%2Fexodus.desync.com%3A6969","seeders":1,"leechers":0,"uploader":"mfccorrea","files":3,"time":1295013220,"description":"Alvarez' longest documentary examination of the Cuban Revolution, this contains exceptional interviews with Fidel, RaÃƒÂºl, Almeida, Vilma, Haydee, Celia and Faustino Perez, among other key players in the Revolution.\n\n   General\n      Complete name : La guerra necesaria.avi\n      Format : AVI\n      Format/Info : Audio Video Interleave\n      File size : 1.33 GiB\n      Duration : 1h 50mn\n      Overall bit rate : 1 729 Kbps\n      Writing application : FairUse Wizard - http://fairusewizard.com\n      Writing library : The best and REALLY easy backup tool\n   Video #0\n      ID : 0\n      Format : MPEG-4 Visual\n      Format profile : AdvancedSimple@L5\n      Format settings, BVOP : Yes\n      Format settings, QPel : No\n      Format settings, GMC : No warppoints\n      Format settings, Matrix : Default (MPEG)\n      Muxing mode : Packed bitstream\n      Codec ID : XVID\n      Codec ID/Hint : XviD\n      Duration : 1h 50mn\n      Bit rate : 1 528 Kbps\n      Width : 624 pixels\n      Height : 384 pixels\n      Display aspect ratio : 1.625\n      Frame rate : 23.976 fps\n      Resolution : 24 bits\n      Colorimetry : 4:2:0\n      Scan type : Progressive\n      Bits/(Pixel*Frame) : 0.266\n      Stream size : 1.18 GiB (88%)\n      Writing library : XviD 1.2.1 (UTC 2008-12-04)\n   Audio #1\n      ID : 1\n      Format : AC-3\n      Format/Info : Audio Coding 3\n      Codec ID : 2000\n      Duration : 1h 50mn\n      Bit rate mode : Constant\n      Bit rate : 192 Kbps\n      Channel(s) : 2 channels\n      Channel positions : L R\n      Sampling rate : 48.0 KHz\n      Stream size : 152 MiB (11%)\n      Alignment : Split accross interleaves\n      Interleave, duration : 42 ms (1.00 video frame)\n      Interleave, preload duration : 500 ms\n &lt;a href=&quot;\nhttp://www.imdb.com/title/tt0150797/&quot; rel=&quot;nofollow&quot; target=&quot;_NEW&quot;&gt;\nhttp://www.imdb.com/title/tt0150797/&lt;/a&gt;\n\nSpanish audio; Multilanguage subpack (English, German, French, Italian, Spanish and Portuguese)\n\nSantiago Alvarez - La guerra necesaria (1980)","torrent":{"xt":"urn:btih:a530e21cb06144e9129e5820a6296c3ff0c0bfbc","amp;dn":"Santiago+Alvarez+-+La+guerra+necesaria+%281980%29","amp;tr":["udp%3A%2F%2Ftracker.openbittorrent.com%3A80","udp%3A%2F%2Fopen.demonii.com%3A1337","udp%3A%2F%2Ftracker.coppersurfer.tk%3A6969","udp%3A%2F%2Fexodus.desync.com%3A6969"],"infoHash":"a530e21cb06144e9129e5820a6296c3ff0c0bfbc","infoHashBuffer":{"type":"Buffer","data":[165,48,226,28,176,97,68,233,18,158,88,32,166,41,108,63,240,192,191,188]},"announce":[],"urlList":[]}}